<svg width="765" height="1867" viewBox="0 0 765 1867" fill="none" xmlns="http://www.w3.org/2000/svg">
<g opacity="0.2" filter="url(#filter0_f_434_194025)">
<g filter="url(#filter1_f_434_194025)">
<path d="M1621.75 1100.76C1302.45 454.067 586.492 1.06527 508.35 77.1131C430.209 153.161 561.272 747.443 576.993 1006.82C588.084 1189.79 815.895 1497.93 762.714 1568.58L736.542 1582.83C746.941 1583.11 755.582 1578.05 762.714 1568.58L1621.75 1100.76Z" fill="url(#paint0_radial_434_194025)" fill-opacity="0.8"/>
</g>
<g style="mix-blend-mode:lighten" filter="url(#filter2_f_434_194025)">
<path d="M1592.27 1116.74C1246.22 425.175 599.774 25.6287 529.114 100.028C458.453 174.428 629.127 723.396 659.785 994.051C681.565 1186.32 817.72 1493.42 788.574 1554.42L769.092 1565.03C778.59 1565.89 784.897 1562.11 788.574 1554.42L1592.27 1116.74Z" fill="url(#paint1_radial_434_194025)" fill-opacity="0.4"/>
</g>
</g>
<defs>
<filter id="filter0_f_434_194025" x="-184.297" y="-438.155" width="1993.43" height="2208.19" filterUnits="userSpaceOnUse" color-interpolation-filters="sRGB">
<feFlood flood-opacity="0" result="BackgroundImageFix"/>
<feBlend mode="normal" in="SourceGraphic" in2="BackgroundImageFix" result="shape"/>
<feGaussianBlur stdDeviation="92.1488" result="effect1_foregroundBlur_434_194025"/>
</filter>
<filter id="filter1_f_434_194025" x="295.194" y="-119.701" width="1515.04" height="1891.03" filterUnits="userSpaceOnUse" color-interpolation-filters="sRGB">
<feFlood flood-opacity="0" result="BackgroundImageFix"/>
<feBlend mode="normal" in="SourceGraphic" in2="BackgroundImageFix" result="shape"/>
<feGaussianBlur stdDeviation="94.243" result="effect1_foregroundBlur_434_194025"/>
</filter>
<filter id="filter2_f_434_194025" x="210.548" y="-210.399" width="1683.3" height="2077.12" filterUnits="userSpaceOnUse" color-interpolation-filters="sRGB">
<feFlood flood-opacity="0" result="BackgroundImageFix"/>
<feBlend mode="normal" in="SourceGraphic" in2="BackgroundImageFix" result="shape"/>
<feGaussianBlur stdDeviation="150.789" result="effect1_foregroundBlur_434_194025"/>
</filter>
<radialGradient id="paint0_radial_434_194025" cx="0" cy="0" r="1" gradientTransform="matrix(-914.995 -1344.19 -690.922 1109.29 1261.2 1301.43)" gradientUnits="userSpaceOnUse">
<stop offset="0.112961" stop-color="#F0F0F0"/>
<stop offset="0.250637" stop-color="#A885FE" stop-opacity="0.770383"/>
<stop offset="0.369792" stop-color="#4A00FF" stop-opacity="0.770383"/>
<stop offset="0.493846" stop-color="#4A00FF"/>
</radialGradient>
<radialGradient id="paint1_radial_434_194025" cx="0" cy="0" r="1" gradientTransform="matrix(-961.161 -1452.51 -598.624 1112.12 1257.24 1303.82)" gradientUnits="userSpaceOnUse">
<stop offset="0.112961" stop-color="#F0F0F0"/>
<stop offset="0.250637" stop-color="#A885FE" stop-opacity="0.770383"/>
<stop offset="0.369792" stop-color="#4A00FF" stop-opacity="0.770383"/>
<stop offset="0.493846" stop-color="#4A00FF" stop-opacity="0.770383"/>
</radialGradient>
</defs>
</svg>
