<svg width="1282" height="1221" viewBox="0 0 1282 1221" fill="none" xmlns="http://www.w3.org/2000/svg">
<g opacity="0.2" filter="url(#filter0_f_434_194021)">
<g filter="url(#filter1_f_434_194021)">
<path d="M-491.983 879.199C206.346 1059.47 1016.88 812.812 1010.28 703.974C1003.68 595.135 467.933 306.481 261.179 149.07C115.332 38.0309 -266.804 9.46196 -285.608 -76.9447L-279.32 -106.075C-286.319 -98.3777 -288.129 -88.5317 -285.608 -76.9447L-491.983 879.199Z" fill="url(#paint0_radial_434_194021)" fill-opacity="0.8"/>
</g>
<g style="mix-blend-mode:lighten" filter="url(#filter2_f_434_194021)">
<path d="M-484.842 846.43C264.937 1035.73 989.604 806.839 979.369 704.744C969.134 602.648 441.855 373.581 216.809 220.126C56.9387 111.113 -264.584 13.7838 -291.763 -48.112L-287.083 -69.7955C-293.936 -63.1632 -295.191 -55.9195 -291.763 -48.112L-484.842 846.43Z" fill="url(#paint1_radial_434_194021)" fill-opacity="0.4"/>
</g>
</g>
<defs>
<filter id="filter0_f_434_194021" x="-680.298" y="-290.373" width="2092.06" height="1680.55" filterUnits="userSpaceOnUse" color-interpolation-filters="sRGB">
<feFlood flood-opacity="0" result="BackgroundImageFix"/>
<feBlend mode="normal" in="SourceGraphic" in2="BackgroundImageFix" result="shape"/>
<feGaussianBlur stdDeviation="92.1488" result="effect1_foregroundBlur_434_194021"/>
</filter>
<filter id="filter1_f_434_194021" x="-680.469" y="-294.561" width="1879.28" height="1426.23" filterUnits="userSpaceOnUse" color-interpolation-filters="sRGB">
<feFlood flood-opacity="0" result="BackgroundImageFix"/>
<feBlend mode="normal" in="SourceGraphic" in2="BackgroundImageFix" result="shape"/>
<feGaussianBlur stdDeviation="94.243" result="effect1_foregroundBlur_434_194021"/>
</filter>
<filter id="filter2_f_434_194021" x="-786.42" y="-371.374" width="2067.47" height="1592.01" filterUnits="userSpaceOnUse" color-interpolation-filters="sRGB">
<feFlood flood-opacity="0" result="BackgroundImageFix"/>
<feBlend mode="normal" in="SourceGraphic" in2="BackgroundImageFix" result="shape"/>
<feGaussianBlur stdDeviation="150.789" result="effect1_foregroundBlur_434_194021"/>
</filter>
<radialGradient id="paint0_radial_434_194021" cx="0" cy="0" r="1" gradientTransform="matrix(1615.58 184.326 -389.307 -1247.53 -408.64 475.067)" gradientUnits="userSpaceOnUse">
<stop offset="0.112961" stop-color="#F0F0F0"/>
<stop offset="0.250637" stop-color="#A885FE" stop-opacity="0.770383"/>
<stop offset="0.369792" stop-color="#4A00FF" stop-opacity="0.770383"/>
<stop offset="0.493846" stop-color="#4A00FF"/>
</radialGradient>
<radialGradient id="paint1_radial_434_194021" cx="0" cy="0" r="1" gradientTransform="matrix(1727.77 220.062 -451.702 -1179.46 -407.869 470.508)" gradientUnits="userSpaceOnUse">
<stop offset="0.112961" stop-color="#F0F0F0"/>
<stop offset="0.250637" stop-color="#A885FE" stop-opacity="0.770383"/>
<stop offset="0.369792" stop-color="#4A00FF" stop-opacity="0.770383"/>
<stop offset="0.493846" stop-color="#4A00FF" stop-opacity="0.770383"/>
</radialGradient>
</defs>
</svg>
